<svg width="234" height="106" viewBox="0 0 234 106" fill="none" xmlns="http://www.w3.org/2000/svg">
<g filter="url(#filter0_d_21_2)">
<path d="M34.992 66.32C29.9147 66.32 25.4987 65.4027 21.744 63.568C17.9893 61.6907 15.1093 59.0453 13.104 55.632C11.0987 52.2187 10.096 48.2507 10.096 43.728C10.096 37.456 11.2693 31.888 13.616 27.024C16.0053 22.16 19.2267 18.4053 23.28 15.76C27.3333 13.072 31.8347 11.728 36.784 11.728C41.392 11.728 44.8907 12.9227 47.28 15.312C49.6693 17.6587 50.864 20.7733 50.864 24.656C50.864 27.2587 50.3947 29.3493 49.456 30.928C48.56 32.5067 47.2587 33.296 45.552 33.296C44.3573 33.296 43.4187 33.0187 42.736 32.464C42.0533 31.9093 41.712 31.0987 41.712 30.032C41.712 29.648 41.7973 28.944 41.968 27.92C42.224 26.64 42.352 25.616 42.352 24.848C42.352 20.9653 40.2827 19.024 36.144 19.024C33.328 19.024 30.64 19.9413 28.08 21.776C25.52 23.6107 23.4507 26.32 21.872 29.904C20.2933 33.4453 19.504 37.6693 19.504 42.576C19.504 47.696 20.9333 51.664 23.792 54.48C26.6507 57.2533 30.8747 58.64 36.464 58.64C39.2373 58.64 42.032 58.2987 44.848 57.616C47.7067 56.8907 50.864 55.8027 54.32 54.352C54.96 54.096 55.4933 53.968 55.92 53.968C56.6027 53.968 57.1147 54.224 57.456 54.736C57.7973 55.248 57.968 55.9093 57.968 56.72C57.968 59.3227 56.56 61.2427 53.744 62.48C50.7147 63.8027 47.5573 64.784 44.272 65.424C41.0293 66.0213 37.936 66.32 34.992 66.32ZM57.491 66.32C55.8697 66.32 54.7177 65.4667 54.035 63.76C53.395 62.0533 53.075 59.3227 53.075 55.568C53.075 50.0213 53.8643 44.752 55.443 39.76C55.827 38.5227 56.4457 37.6267 57.299 37.072C58.195 36.4747 59.4323 36.176 61.011 36.176C61.8643 36.176 62.4617 36.2827 62.803 36.496C63.1443 36.7093 63.315 37.1147 63.315 37.712C63.315 38.3947 62.995 39.9307 62.355 42.32C61.9283 44.0267 61.587 45.52 61.331 46.8C61.075 48.08 60.8617 49.6587 60.691 51.536C62.099 47.8667 63.6777 44.88 65.427 42.576C67.1763 40.272 68.883 38.6293 70.547 37.648C72.2537 36.6667 73.811 36.176 75.219 36.176C77.9923 36.176 79.379 37.5627 79.379 40.336C79.379 40.8907 79.187 42.2347 78.803 44.368C78.4617 46.0747 78.291 47.1413 78.291 47.568C78.291 49.0613 78.8243 49.808 79.891 49.808C81.0857 49.808 82.6217 48.8693 84.499 46.992C85.0537 46.4373 85.6297 46.16 86.227 46.16C86.7817 46.16 87.2083 46.416 87.507 46.928C87.8483 47.3973 88.019 48.0373 88.019 48.848C88.019 50.4267 87.5923 51.664 86.739 52.56C85.5443 53.7973 84.1363 54.864 82.515 55.76C80.9363 56.6133 79.251 57.04 77.459 57.04C75.1977 57.04 73.4697 56.464 72.275 55.312C71.123 54.16 70.547 52.6027 70.547 50.64C70.547 50 70.611 49.36 70.739 48.72C70.8243 47.8667 70.867 47.2907 70.867 46.992C70.867 46.3093 70.6323 45.968 70.163 45.968C69.523 45.968 68.6697 46.6933 67.603 48.144C66.579 49.552 65.555 51.4293 64.531 53.776C63.507 56.1227 62.675 58.5973 62.035 61.2C61.5657 63.2053 61.011 64.5707 60.371 65.296C59.7737 65.9787 58.8137 66.32 57.491 66.32ZM114.84 51.856C115.395 51.856 115.821 52.1333 116.12 52.688C116.461 53.2 116.632 53.8613 116.632 54.672C116.632 55.6533 116.483 56.4213 116.184 56.976C115.885 57.5307 115.416 58.0213 114.776 58.448L102.488 66.704C100.867 75.536 98.7333 82.4693 96.088 87.504C93.4853 92.5813 90.1573 95.12 86.104 95.12C83.928 95.12 82.1573 94.4373 80.792 93.072C79.4267 91.7493 78.744 90 78.744 87.824C78.744 85.8187 79.192 83.7707 80.088 81.68C81.0267 79.5893 82.7333 77.1787 85.208 74.448C87.7253 71.76 91.2667 68.6667 95.832 65.168L96.024 63.696C96.3227 62.1173 96.664 59.856 97.048 56.912C96.1947 59.984 95 62.3307 93.464 63.952C91.928 65.5307 90.3067 66.32 88.6 66.32C86.68 66.32 85.1013 65.4453 83.864 63.696C82.6693 61.904 82.072 59.6853 82.072 57.04C82.072 53.84 82.2853 50.9173 82.712 48.272C83.1387 45.584 83.8427 42.7467 84.824 39.76C85.2507 38.48 85.848 37.5627 86.616 37.008C87.384 36.4533 88.6 36.176 90.264 36.176C91.2027 36.176 91.8427 36.3253 92.184 36.624C92.568 36.9227 92.76 37.3707 92.76 37.968C92.76 38.3093 92.5253 39.4613 92.056 41.424C91.6293 43.0027 91.288 44.432 91.032 45.712C90.6907 47.4613 90.392 49.1467 90.136 50.768C89.88 52.3467 89.752 53.648 89.752 54.672C89.752 56.2933 90.2 57.104 91.096 57.104C91.736 57.104 92.5253 56.464 93.464 55.184C94.4453 53.904 95.4693 51.9627 96.536 49.36C97.6453 46.7573 98.712 43.5573 99.736 39.76C100.077 38.48 100.589 37.5627 101.272 37.008C101.997 36.4533 103.064 36.176 104.472 36.176C105.453 36.176 106.136 36.304 106.52 36.56C106.904 36.816 107.096 37.2427 107.096 37.84C107.096 38.9067 106.541 42.576 105.432 48.848L103.768 59.152C107.053 56.6773 110.253 54.416 113.368 52.368C113.923 52.0267 114.413 51.856 114.84 51.856ZM86.808 88.912C87.8747 88.912 89.0693 87.6747 90.392 85.2C91.7147 82.7253 93.0373 78.608 94.36 72.848C91.0747 75.6213 88.6853 78.1387 87.192 80.4C85.7413 82.704 85.016 84.7093 85.016 86.416C85.016 87.1413 85.144 87.7387 85.4 88.208C85.6987 88.6773 86.168 88.912 86.808 88.912ZM147.498 51.728C148.053 51.728 148.479 51.984 148.778 52.496C149.119 53.008 149.29 53.712 149.29 54.608C149.29 56.3147 148.885 57.6373 148.074 58.576C146.239 60.8373 144.255 62.6933 142.122 64.144C140.031 65.5947 137.642 66.32 134.954 66.32C132.693 66.32 130.858 65.5093 129.45 63.888C127.018 65.4667 124.479 66.2773 121.834 66.32C121.279 74.5547 120.021 81.424 118.058 86.928C116.095 92.4747 113.215 95.248 109.418 95.248C107.114 95.248 105.407 94.416 104.298 92.752C103.189 91.088 102.634 88.784 102.634 85.84C102.634 81.6587 103.594 76.7733 105.514 71.184C107.434 65.6373 110.399 59.5147 114.41 52.816C114.41 46.5867 114.367 42.256 114.282 39.824C114.239 38.5867 114.73 37.6053 115.754 36.88C116.778 36.1547 118.058 35.792 119.594 35.792C120.49 35.792 121.13 35.984 121.514 36.368C121.941 36.7093 122.175 37.4133 122.218 38.48C122.218 39.5467 122.239 40.336 122.282 40.848C123.647 39.1413 124.991 37.9253 126.314 37.2C127.637 36.432 129.045 36.048 130.538 36.048C132.927 36.048 134.869 37.008 136.362 38.928C137.898 40.848 138.666 43.3653 138.666 46.48C138.666 48.7413 138.303 50.9387 137.578 53.072C136.853 55.2053 135.85 57.1467 134.57 58.896C135.466 59.152 136.213 59.28 136.81 59.28C138.218 59.28 139.562 58.768 140.842 57.744C142.122 56.72 143.765 55.0133 145.77 52.624C146.282 52.0267 146.858 51.728 147.498 51.728ZM122.154 60.176C123.69 59.8347 125.098 59.0027 126.378 57.68C127.701 56.3147 128.746 54.6507 129.514 52.688C130.282 50.6827 130.666 48.592 130.666 46.416C130.666 45.136 130.41 44.176 129.898 43.536C129.386 42.8533 128.703 42.512 127.85 42.512C126.314 42.512 124.458 44.1333 122.282 47.376C122.239 49.2533 122.218 52.0053 122.218 55.632C122.218 57.5947 122.197 59.1093 122.154 60.176ZM109.93 88.976C111.082 88.976 112.042 86.4587 112.81 81.424C113.578 76.432 114.069 70.2027 114.282 62.736C112.447 67.0027 110.997 71.0773 109.93 74.96C108.863 78.8427 108.33 82.1067 108.33 84.752C108.33 86.1173 108.501 87.1627 108.842 87.888C109.141 88.6133 109.503 88.976 109.93 88.976ZM172.679 51.728C173.233 51.728 173.66 51.984 173.958 52.496C174.3 53.008 174.471 53.712 174.471 54.608C174.471 56.3147 174.065 57.6373 173.255 58.576C171.42 60.8373 169.415 62.6933 167.239 64.144C165.063 65.5947 162.567 66.32 159.751 66.32C151.047 66.32 146.695 60.1973 146.695 47.952C146.695 46.0747 146.759 44.176 146.887 42.256H144.391C143.111 42.256 142.236 42.0213 141.767 41.552C141.34 41.0827 141.127 40.336 141.127 39.312C141.127 36.9227 142.087 35.728 144.007 35.728H147.655C148.38 31.0347 149.489 26.7467 150.983 22.864C152.476 18.9813 154.268 15.888 156.359 13.584C158.492 11.28 160.775 10.128 163.207 10.128C164.999 10.128 166.407 10.9173 167.431 12.496C168.455 14.0747 168.967 16.0587 168.967 18.448C168.967 25.0613 166.193 30.8213 160.647 35.728H167.815C168.497 35.728 168.988 35.8773 169.287 36.176C169.585 36.4747 169.735 37.0293 169.735 37.84C169.735 40.784 167.324 42.256 162.503 42.256H154.695C154.609 44.3893 154.567 46.0533 154.567 47.248C154.567 51.6853 155.079 54.8 156.103 56.592C157.169 58.384 158.833 59.28 161.095 59.28C162.929 59.28 164.551 58.7253 165.959 57.616C167.367 56.5067 169.031 54.8427 170.951 52.624C171.463 52.0267 172.039 51.728 172.679 51.728ZM161.479 16.272C160.839 16.272 160.113 17.0827 159.303 18.704C158.535 20.2827 157.788 22.5013 157.062 25.36C156.38 28.176 155.804 31.312 155.335 34.768C157.852 32.592 159.729 30.16 160.967 27.472C162.247 24.7413 162.887 22.2667 162.887 20.048C162.887 17.5307 162.417 16.272 161.479 16.272ZM197.804 51.728C198.358 51.728 198.785 51.984 199.083 52.496C199.425 53.008 199.596 53.712 199.596 54.608C199.596 56.3147 199.19 57.6373 198.38 58.576C196.801 60.496 194.561 62.2667 191.66 63.888C188.801 65.5093 185.729 66.32 182.444 66.32C177.964 66.32 174.486 65.104 172.012 62.672C169.537 60.24 168.299 56.912 168.299 52.688C168.299 49.744 168.918 47.0133 170.156 44.496C171.393 41.936 173.1 39.9093 175.276 38.416C177.494 36.9227 179.99 36.176 182.764 36.176C185.238 36.176 187.222 36.9227 188.716 38.416C190.209 39.8667 190.956 41.8507 190.956 44.368C190.956 47.312 189.889 49.8507 187.756 51.984C185.665 54.0747 182.102 55.7387 177.068 56.976C178.134 58.9387 180.161 59.92 183.148 59.92C185.068 59.92 187.244 59.2587 189.676 57.936C192.15 56.5707 194.284 54.8 196.076 52.624C196.588 52.0267 197.164 51.728 197.804 51.728ZM181.676 42.448C180.097 42.448 178.753 43.3653 177.644 45.2C176.577 47.0347 176.044 49.2533 176.044 51.856V51.984C178.561 51.3867 180.545 50.4907 181.996 49.296C183.446 48.1013 184.172 46.7147 184.172 45.136C184.172 44.3253 183.937 43.6853 183.468 43.216C183.041 42.704 182.444 42.448 181.676 42.448ZM220.241 44.944C221.179 44.944 221.969 45.2853 222.609 45.968C223.291 46.608 223.632 47.4187 223.632 48.4C223.632 48.9547 223.505 49.552 223.249 50.192C222.566 51.7707 221.606 53.0933 220.369 54.16C219.131 55.2267 217.766 55.76 216.273 55.76C215.078 55.76 214.054 55.3333 213.201 54.48C212.39 53.6267 211.985 52.4747 211.985 51.024C211.985 50.2133 212.027 49.3387 212.113 48.4C212.198 47.7173 212.241 47.248 212.241 46.992C212.241 46.6507 212.155 46.3947 211.985 46.224C211.857 46.0533 211.686 45.968 211.473 45.968C210.875 45.968 210.065 46.6933 209.041 48.144C208.017 49.552 206.993 51.4293 205.969 53.776C204.945 56.1227 204.113 58.5973 203.473 61.2C203.003 63.248 202.47 64.6133 201.873 65.296C201.275 65.9787 200.294 66.32 198.929 66.32C197.307 66.32 196.155 65.4667 195.473 63.76C194.833 62.0533 194.513 59.3227 194.513 55.568C194.513 50.0213 195.302 44.752 196.881 39.76C197.265 38.5227 197.883 37.6267 198.737 37.072C199.633 36.4747 200.87 36.176 202.449 36.176C203.302 36.176 203.899 36.2827 204.241 36.496C204.582 36.7093 204.753 37.1147 204.753 37.712C204.753 38.3947 204.433 39.9307 203.793 42.32C203.366 44.0267 203.025 45.52 202.769 46.8C202.513 48.08 202.299 49.6587 202.129 51.536C203.537 47.8667 205.115 44.88 206.865 42.576C208.614 40.272 210.321 38.6293 211.985 37.648C213.649 36.6667 215.163 36.176 216.529 36.176C217.766 36.176 218.705 36.5387 219.345 37.264C220.027 37.9467 220.369 38.9707 220.369 40.336C220.369 41.1467 220.134 42.6827 219.665 44.944H220.241Z" fill="#FBF6F6"/>
</g>
<defs>
<filter id="filter0_d_21_2" x="0.0960083" y="0.127991" width="233.536" height="105.12" filterUnits="userSpaceOnUse" color-interpolation-filters="sRGB">
<feFlood flood-opacity="0" result="BackgroundImageFix"/>
<feColorMatrix in="SourceAlpha" type="matrix" values="0 0 0 0 0 0 0 0 0 0 0 0 0 0 0 0 0 0 127 0" result="hardAlpha"/>
<feOffset/>
<feGaussianBlur stdDeviation="5"/>
<feComposite in2="hardAlpha" operator="out"/>
<feColorMatrix type="matrix" values="0 0 0 0 0 0 0 0 0 0 0 0 0 0 0 0 0 0 0.5 0"/>
<feBlend mode="normal" in2="BackgroundImageFix" result="effect1_dropShadow_21_2"/>
<feBlend mode="normal" in="SourceGraphic" in2="effect1_dropShadow_21_2" result="shape"/>
</filter>
</defs>
</svg>
